<svg
    xmlns="http://www.w3.org/2000/svg"
	 viewBox="0 0 16 16" >
    <path d="M15.9991,11.92819v3.143c0.0001,0.225-0.0851,0.4417-0.2386,0.6063
	c-0.1534,0.1647-0.3635,0.265-0.588,0.2807c-0.3884,0.0267-0.7057,0.0409-0.9511,0.0409C6.36676,15.99909,0,9.63234,0,1.77767
	c0-0.24532,0.01333-0.56264,0.04089-0.95106c0.01575-0.22448,0.11607-0.43463,0.2807-0.58805
	c0.16463-0.15342,0.38133-0.23867,0.60636-0.23857h3.14294c0.11025-0.00011,0.2166,0.04076,0.2984,0.11468
	c0.08181,0.07392,0.13321,0.1756,0.14424,0.2853C4.53397,0.6044,4.55264,0.76706,4.57041,0.8906
	c0.17665,1.23275,0.53864,2.43171,1.07372,3.55625c0.08444,0.17776,0.02933,0.39019-0.13066,0.50397L3.59536,6.32142
	c1.17278,2.73269,3.35052,4.91047,6.08321,6.08317l1.36883-1.9145c0.0559-0.0782,0.1376-0.1343,0.2306-0.1585
	c0.0931-0.0242,0.1917-0.015,0.2787,0.026c1.1244,0.5341,2.323,0.8952,3.5554,1.0711c0.1235,0.0178,0.2862,0.0373,0.4888,0.0569
	c0.1096,0.0112,0.211,0.0627,0.2848,0.1445c0.0737,0.0818,0.1144,0.188,0.1143,0.2981H15.9991z"/>
</svg>
