<?xml version="1.0" encoding="utf-8"?>
<!-- Generator: Adobe Illustrator 24.1.0, SVG Export Plug-In . SVG Version: 6.00 Build 0)  -->
<svg version="1.1" id="Layer_1" xmlns="http://www.w3.org/2000/svg" xmlns:xlink="http://www.w3.org/1999/xlink" x="0px" y="0px"
	 viewBox="0 0 114.8724 17.82138" enable-background="new 0 0 114.8724 17.82138" xml:space="preserve">
<g>
	<path fill="#1F1E25" d="M37.0083,17.52574h-2.39826V8.18681H31.8306c-0.06353,0.48704-0.13238,1.01648-0.20647,1.58825
		c-0.06353,0.57177-0.13763,1.1541-0.22235,1.74708c-0.07409,0.58233-0.1535,1.13822-0.23824,1.66766
		c-0.08474,0.5188-0.16939,0.9794-0.25412,1.38178c-0.13763,0.6565-0.32297,1.21764-0.55589,1.68355
		c-0.22235,0.46591-0.53468,0.82057-0.93707,1.06413c-0.39174,0.24356-0.9053,0.3653-1.5406,0.3653
		c-0.41294,0-0.79413-0.05821-1.14354-0.17471v-1.96943c0.13762,0.04233,0.27,0.07941,0.39706,0.11118
		c0.13762,0.03177,0.28588,0.04765,0.44471,0.04765c0.30709,0,0.54001-0.15883,0.69883-0.47648
		c0.16939-0.32821,0.33885-0.93707,0.50824-1.82649c0.06354-0.33885,0.1535-0.86822,0.27-1.58825
		c0.1165-0.72003,0.24356-1.56181,0.38118-2.52532c0.14826-0.97416,0.28589-2.00652,0.41294-3.09709h7.16302
		C37.00831,6.18561,37.00831,17.52574,37.0083,17.52574z M39.86899,6.18561h2.16003v5.47947
		c0,0.26468-0.00524,0.56121-0.01588,0.88942c-0.01056,0.32821-0.02112,0.65118-0.03177,0.96883
		c-0.01056,0.30709-0.02112,0.57709-0.03176,0.81001c-0.01056,0.22235-0.02113,0.37586-0.03177,0.46059h0.04765l5.24123-8.60833
		h2.87474v11.34013h-2.14414v-5.44771c0-0.28588,0.00533-0.59821,0.01588-0.93707c0.01064-0.34942,0.0212-0.68295,0.03176-1.0006
		c0.02121-0.31765,0.03709-0.59297,0.04765-0.82589c0.0212-0.24356,0.03708-0.40239,0.04764-0.47648h-0.06352l-5.25711,8.68774
		h-2.89062L39.86899,6.18561C39.86899,6.18561,39.86899,6.18561,39.86899,6.18561z M60.10722,6.18561v1.98531h-4.76476v9.35481
		H52.9442V6.18561H60.10722z M67.67104,17.52574l-0.82589-2.70003h-4.12946l-0.82589,2.70003h-2.58886l4.0024-11.38777h2.93826
		l4.01828,11.38777H67.67104z M66.27337,12.80863l-0.82589-2.6365c-0.05297-0.18003-0.12181-0.40763-0.20647-0.68295
		c-0.08473-0.27532-0.16947-0.55589-0.25413-0.84177c-0.08473-0.28589-0.15359-0.53469-0.20647-0.74648
		c-0.05297,0.21179-0.12706,0.47648-0.22235,0.79413c-0.08473,0.30709-0.16947,0.60354-0.25412,0.88942
		c-0.07417,0.27532-0.13238,0.47115-0.17471,0.58765l-0.81,2.6365L66.27337,12.80863L66.27337,12.80863z M76.24053,17.52574V6.18561
		h7.16302v1.98531h-4.76476v2.3665h0.95295c1.06969,0,1.94322,0.14827,2.62062,0.44471
		c0.68851,0.29645,1.19675,0.70415,1.52472,1.22295c0.32797,0.5188,0.49236,1.11177,0.49236,1.77884
		c0,1.12234-0.37562,1.99588-1.12766,2.62062c-0.74092,0.6141-1.92734,0.92119-3.55769,0.92119
		C79.54408,17.52574,76.24053,17.52574,76.24053,17.52574z M78.6388,15.5563h0.81001c0.73059,0,1.30237-0.1165,1.71531-0.34942
		c0.42327-0.23292,0.63531-0.64062,0.63531-1.22295c0-0.60354-0.2279-1.0006-0.68295-1.19119
		c-0.45502-0.19059-1.07445-0.28588-1.85825-0.28588H78.6388C78.6388,12.50686,78.6388,15.5563,78.6388,15.5563z M89.73592,8.67917
		c1.16499,0,2.05441,0.25412,2.66827,0.76236c0.62497,0.49768,0.93708,1.26528,0.93708,2.30297v5.78124h-1.65179l-0.4606-1.17531
		h-0.06353c-0.37086,0.46591-0.76236,0.80469-1.17531,1.01649s-0.97916,0.31765-1.69943,0.31765
		c-0.77269,0-1.41354-0.22235-1.92178-0.66707c-0.50825-0.45527-0.76237-1.14886-0.76237-2.08061
		c0-0.92119,0.32322-1.59881,0.96883-2.03296c0.64563-0.44471,1.61446-0.68827,2.90651-0.7306l1.50884-0.04765v-0.38118
		c0-0.45527-0.12151-0.78881-0.3653-1.0006c-0.23268-0.21179-0.56145-0.31765-0.98472-0.31765s-0.83622,0.06353-1.23884,0.19059
		c-0.40263,0.1165-0.80445,0.26468-1.20707,0.44471l-0.77824-1.60414c0.46615-0.24356,0.97916-0.43415,1.5406-0.57177
		C88.52885,8.74802,89.12206,8.67917,89.73592,8.67917z M90.99065,13.50746l-0.9212,0.03176
		c-0.76236,0.0212-1.29205,0.15883-1.58826,0.41294c-0.2962,0.25412-0.4447,0.58766-0.4447,1.0006
		c0,0.35997,0.10562,0.61942,0.31765,0.77824c0.21203,0.14827,0.4868,0.22236,0.82589,0.22236
		c0.50824,0,0.93707-0.14827,1.28648-0.44471c0.34942-0.30709,0.52413-0.73592,0.52413-1.28648V13.50746z M98.12984,8.85388v3.33533
		h3.30357V8.85388h2.36649v8.67186h-2.36649v-3.57357h-3.30357v3.57357h-2.3665V8.85388H98.12984z M111.9659,8.85388h2.60473
		l-3.43063,4.16122l3.73239,4.51064h-2.68414l-3.54182-4.39946v4.39946h-2.36649V8.85388h2.36649v4.20887L111.9659,8.85388z"/>
	<g>
		<path fill="#2C36F2" d="M11.16918,0.16285H9.128L0.1469,15.09821h2.65351l1.2247-2.13363L11.16918,0.16285z"/>
		<path fill="#2C36F2" d="M1.3716,17.65853h17.14577L11.16918,4.43009l-1.2247,2.13359l3.67409,6.4009l1.2247,2.13363H2.80042
			H0.1469L1.3716,17.65853z"/>
		<path fill="#2C36F2" d="M14.84328,15.09821l-1.2247-2.13363H6.27039H4.02512l-1.2247,2.13363H14.84328z"/>
		<path fill="#2C36F2" d="M18.51737,17.65853l1.2247-2.56032L11.16918,0.16285L4.02512,12.96458h2.24528l3.67409-6.4009
			l1.2247-2.13359L18.51737,17.65853z"/>
		<path fill="#2C36F2" d="M9.94449,6.56368l-3.67409,6.4009h7.34819L9.94449,6.56368z"/>
		<path fill="none" stroke="#F6F7FF" stroke-width="0.3257" d="M18.51737,17.65853H1.3716l-1.2247-2.56032 M18.51737,17.65853
			l1.2247-2.56032L11.16918,0.16285 M18.51737,17.65853L11.16918,4.43009l-1.2247,2.13359 M11.16918,0.16285H9.128L0.1469,15.09821
			 M11.16918,0.16285L4.02512,12.96458 M0.1469,15.09821h2.65351 M9.94449,6.56368l-3.67409,6.4009 M9.94449,6.56368l3.67409,6.4009
			 M6.27039,12.96458h7.34819 M6.27039,12.96458H4.02512 M13.61858,12.96458l1.2247,2.13363H2.80042 M4.02512,12.96458
			l-1.2247,2.13363"/>
	</g>
</g>
</svg>
