<?xml version="1.0" encoding="utf-8"?>
<!-- Generator: Adobe Illustrator 24.1.0, SVG Export Plug-In . SVG Version: 6.00 Build 0)  -->
<svg version="1.1" id="Layer_1" xmlns="http://www.w3.org/2000/svg" xmlns:xlink="http://www.w3.org/1999/xlink" x="0px" y="0px"
	 viewBox="0 0 29.50002 33.59357" enable-background="new 0 0 29.50002 33.59357" xml:space="preserve">
<path fill="#2C36F2" d="M25.0031,23.5845L14.75,33.25L4.49689,23.5845c-2.02784-1.9117-3.40881-4.3473-3.96828-6.9988
	c-0.55947-2.6515-0.27232-5.3999,0.82516-7.89761C2.45125,6.19041,4.30975,4.0556,6.69425,2.55364
	C9.07876,1.05167,11.8822,0.25,14.75,0.25s5.6712,0.80167,8.0557,2.30364c2.3846,1.50196,4.2431,3.63677,5.3405,6.13445
	c1.0975,2.49771,1.3847,5.24611,0.8252,7.89761S27.0309,21.6728,25.0031,23.5845z"/>
<path fill="#2C36F2" d="M15.5934,7.86538h-1.4057L8.00247,17.978H9.8299l0.8435-1.4447L15.5934,7.86538z"/>
<path fill="#2C36F2" d="M8.84591,19.7115H20.6541l-5.0607-8.9568L14.75,12.1993l2.5303,4.334l0.8435,1.4447H9.8299H8.00247
	L8.84591,19.7115z"/>
<path fill="#2C36F2" d="M18.1238,17.978l-0.8435-1.4447h-5.0606h-1.5463L9.8299,17.978H18.1238z"/>
<path fill="#2C36F2" d="M20.6541,19.7115l0.8434-1.7335L15.5934,7.86538l-4.92,8.66792h1.5463l2.5303-4.334l0.8434-1.4446
	L20.6541,19.7115z"/>
<path fill="#2C36F2" d="M14.75,12.1993l-2.5303,4.334h5.0606L14.75,12.1993z"/>
<path fill="none" stroke="#F6F7FF" stroke-width="0.5" d="M20.6541,19.7115H8.84591L8.00247,17.978 M20.6541,19.7115l0.8434-1.7335
	L15.5934,7.86538 M20.6541,19.7115l-5.0607-8.9568L14.75,12.1993 M15.5934,7.86538h-1.4057L8.00247,17.978 M15.5934,7.86538
	l-4.92,8.66792 M8.00247,17.978H9.8299 M14.75,12.1993l-2.5303,4.334 M14.75,12.1993l2.5303,4.334 M12.2197,16.5333h5.0606
	 M12.2197,16.5333h-1.5463 M17.2803,16.5333l0.8435,1.4447H9.8299 M10.6734,16.5333L9.8299,17.978 M25.0031,23.5845L14.75,33.25
	L4.49689,23.5845c-2.02784-1.9117-3.40881-4.3473-3.96828-6.9988c-0.55947-2.6515-0.27232-5.3999,0.82516-7.89761
	C2.45125,6.19041,4.30975,4.0556,6.69425,2.55364C9.07876,1.05167,11.8822,0.25,14.75,0.25s5.6712,0.80167,8.0557,2.30364
	c2.3846,1.50196,4.2431,3.63677,5.3405,6.13445c1.0975,2.49771,1.3847,5.24611,0.8252,7.89761S27.0309,21.6728,25.0031,23.5845z"/>
</svg>
