<svg style="position:absolute;top:0;left:0;width:1px;height:1px;visibility:hidden;opacity:0;" aria-hidden="true" xmlns="http://www.w3.org/2000/svg" xmlns:xlink="http://www.w3.org/1999/xlink"><symbol viewBox="0 0 17.414 10.121" stroke-width="2" id="calculator__arrow" xmlns="http://www.w3.org/2000/svg"><path fill="none" d="M.707.707l8 8 8-8"/></symbol><symbol viewBox="0 0 16 2" stroke-width="2" id="calculator__minus" xmlns="http://www.w3.org/2000/svg"><path fill="none" d="M0 1h16"/></symbol><symbol viewBox="0 0 16 16" stroke-width="2" id="calculator__plus" xmlns="http://www.w3.org/2000/svg"><path fill="none" d="M0 8h16M8 0v16"/></symbol><symbol viewBox="0 0 9 16" id="footer__facebook" xmlns="http://www.w3.org/2000/svg"><path d="M6 9.2h2.143L9 6H6V4.4c0-.824 0-1.6 1.714-1.6H9V.112A25.85 25.85 0 0 0 6.551 0c-2.327 0-3.98 1.326-3.98 3.76V6H0v3.2h2.571V16H6V9.2z"/></symbol><symbol viewBox="0 0 16 16" id="footer__instagram" xmlns="http://www.w3.org/2000/svg"><path d="M8 0c2.174 0 2.445.008 3.298.048.852.04 1.432.174 1.942.372a3.9 3.9 0 0 1 1.418.922c.406.4.721.884.922 1.418.198.51.332 1.09.372 1.942C15.99 5.555 16 5.826 16 8s-.008 2.445-.048 3.298c-.04.852-.174 1.432-.372 1.942a3.907 3.907 0 0 1-.922 1.418 3.94 3.94 0 0 1-1.418.922c-.51.198-1.09.332-1.942.372C10.445 15.99 10.174 16 8 16s-2.445-.008-3.298-.048c-.852-.04-1.432-.174-1.942-.372a3.911 3.911 0 0 1-1.418-.922A3.924 3.924 0 0 1 .42 13.24c-.198-.51-.332-1.09-.372-1.942C.01 10.445 0 10.174 0 8s.008-2.445.048-3.298C.088 3.85.222 3.27.42 2.76c.2-.534.515-1.018.922-1.418.4-.407.884-.721 1.418-.922C3.27.222 3.85.088 4.702.048 5.555.01 5.826 0 8 0zm0 4a4 4 0 1 0 0 8 4 4 0 0 0 0-8zm5.2-.2a1 1 0 1 0-2 0 1 1 0 0 0 2 0zM8 5.6a2.4 2.4 0 1 1 0 4.8 2.4 2.4 0 0 1 0-4.8z"/></symbol><symbol viewBox="0 0 20 34" id="footer__online" xmlns="http://www.w3.org/2000/svg"><path d="M17.675 0H2.325C1.047 0 0 1.033 0 2.296v29.407C0 32.966 1.047 34 2.325 34h15.35C18.953 34 20 32.968 20 31.703V2.296C20 1.033 18.953 0 17.675 0zM7.545 1.655h4.91a.28.28 0 0 1 .282.28.28.28 0 0 1-.282.277h-4.91a.28.28 0 0 1-.282-.278.28.28 0 0 1 .282-.279zM10 32.852c-.642 0-1.163-.514-1.163-1.15s.52-1.148 1.163-1.148c.642 0 1.163.513 1.163 1.149 0 .635-.52 1.149-1.163 1.149zm8.382-3.102H1.618V3.642h16.764V29.75z"/></symbol><symbol viewBox="0 0 16 16" id="footer__tel" xmlns="http://www.w3.org/2000/svg"><path d="M16 11.928v3.143a.888.888 0 0 1-.827.887c-.389.027-.706.041-.952.041C6.367 16 0 9.632 0 1.778c0-.246.013-.563.04-.951A.889.889 0 0 1 .929 0H4.07a.444.444 0 0 1 .443.4c.02.204.039.367.056.49a12.356 12.356 0 0 0 1.074 3.557c.085.178.03.39-.13.504L3.594 6.32a11.596 11.596 0 0 0 6.084 6.084l1.368-1.915a.41.41 0 0 1 .51-.132c1.124.534 2.323.895 3.555 1.07.124.018.286.038.489.058a.444.444 0 0 1 .399.442z"/></symbol><symbol viewBox="0 0 16 13" id="footer__twitter" xmlns="http://www.w3.org/2000/svg"><path d="M16 1.543c-.6.265-1.236.44-1.886.516A3.292 3.292 0 0 0 15.558.244a6.563 6.563 0 0 1-2.085.796A3.283 3.283 0 0 0 7.88 4.032 9.325 9.325 0 0 1 1.114.604a3.28 3.28 0 0 0 1.016 4.38 3.273 3.273 0 0 1-1.487-.41v.04a3.281 3.281 0 0 0 2.633 3.218c-.484.13-.99.15-1.483.056a3.283 3.283 0 0 0 3.067 2.279A6.59 6.59 0 0 1 0 11.525 9.29 9.29 0 0 0 5.031 13c6.039 0 9.341-4.999 9.341-9.334 0-.141-.004-.284-.01-.424A6.667 6.667 0 0 0 16 1.544z"/></symbol><symbol viewBox="0 0 16 13" id="footer__youtube" xmlns="http://www.w3.org/2000/svg"><path d="M15.634 2.03C16 3.478 16 6.5 16 6.5s0 3.022-.366 4.47c-.203.8-.797 1.43-1.55 1.643C12.717 13 8 13 8 13s-4.714 0-6.084-.387c-.756-.216-1.35-.845-1.55-1.643C0 9.523 0 6.5 0 6.5s0-3.022.366-4.47c.203-.8.797-1.43 1.55-1.643C3.286 0 8 0 8 0s4.717 0 6.084.387c.756.216 1.35.845 1.55 1.643zM6.4 9.344L11.2 6.5 6.4 3.656v5.688z"/></symbol><symbol viewBox="0 0 20 22" id="login__icon" xmlns="http://www.w3.org/2000/svg"><path d="M2.222 14.3h2.222v5.5h13.334V2.2H4.444v5.5H2.222V1.1c0-.292.117-.572.326-.778.208-.206.49-.322.785-.322H18.89c.295 0 .577.116.786.322.208.206.325.486.325.778v19.8c0 .292-.117.572-.325.778a1.117 1.117 0 0 1-.786.322H3.333c-.294 0-.577-.116-.785-.322a1.095 1.095 0 0 1-.326-.778v-6.6zM8.89 9.9V6.6l5.555 4.4-5.555 4.4v-3.3H0V9.9h8.889z"/></symbol><symbol fill="none" viewBox="0 0 18 18" id="main-nav__close" xmlns="http://www.w3.org/2000/svg"><path d="M1 1l16 16m0-16L1 17"/></symbol><symbol fill="none" viewBox="0 0 16 12" id="main-nav__menu" xmlns="http://www.w3.org/2000/svg"><path d="M0 1h16M0 6h16M0 11h16"/></symbol><symbol viewBox="0 0 10 10" id="map-departments__location"><path d="M10 0L0 4.184l4.121 1.695L5.817 10 10 0z"/></symbol><symbol viewBox="0 0 16 2" stroke-width="2" id="map-departments__minus"><path d="M0 1h16"/></symbol><symbol viewBox="0 0 16 16" stroke-width="2" id="map-departments__plus"><path d="M0 8h16M8 0v16"/></symbol><symbol fill="none" viewBox="0 0 18 18" id="modal__close" xmlns="http://www.w3.org/2000/svg"><path d="M1 1l16 16m0-16L1 17"/></symbol><symbol viewBox="0 0 22 12" id="modal__show" xmlns="http://www.w3.org/2000/svg"><path d="M8.299 12l-1.963-.51.8-2.898a11.254 11.254 0 0 1-3.29-1.846L1.66 8.87.22 7.475l2.19-2.123A10.663 10.663 0 0 1 0 .354L2 0c.771 4.143 4.507 7.286 9 7.286 4.492 0 8.229-3.143 9-7.286l2 .353a10.662 10.662 0 0 1-2.409 5l2.188 2.122-1.438 1.395-2.188-2.124a11.254 11.254 0 0 1-3.29 1.846l.8 2.898-1.962.51-.8-2.898a11.6 11.6 0 0 1-3.801 0L8.299 12z"/></symbol><symbol viewBox="0 0 34 30" id="services__credit" xmlns="http://www.w3.org/2000/svg"><path d="M32.702 4.397L11.88.035a1.642 1.642 0 0 0-1.94 1.25l-.396 2.517 24.026 5.033.396-2.517a1.626 1.626 0 0 0-1.263-1.92zM23.945 9.368a1.66 1.66 0 0 0-2.034-1.139l-3.953 1.087-9.32-1.953-1.024 4.794-6.404 1.759a1.639 1.639 0 0 0-1.15 2.013l3.609 12.873a1.66 1.66 0 0 0 2.034 1.139l20.7-5.687a1.639 1.639 0 0 0 1.15-2.013l-.618-2.21 2.321.486a1.641 1.641 0 0 0 1.94-1.25l1.47-6.87-8.363-1.752-.358-1.277zm2.39 6.543l.513-2.395a.676.676 0 0 1 .798-.514l2.42.507a.669.669 0 0 1 .52.79l-.513 2.395a.676.676 0 0 1-.798.514l-2.42-.507a.67.67 0 0 1-.52-.79zM1.572 15.2l20.7-5.686a.312.312 0 0 1 .376.21l.705 2.517L2.064 18.09l-.706-2.517a.306.306 0 0 1 .213-.372zm24.685 7.396a.295.295 0 0 1-.03.229.296.296 0 0 1-.183.143l-20.7 5.687a.312.312 0 0 1-.376-.21l-2.105-7.51 21.289-5.847 2.105 7.508z"/><path d="M8.688 23.11a.677.677 0 0 0-.83-.464l-2.417.665a.668.668 0 0 0-.469.82l.671 2.393c.1.354.472.562.83.464l2.417-.664a.668.668 0 0 0 .47-.82l-.672-2.393z"/></symbol><symbol viewBox="0 0 28.001 34" id="services__insurance" xmlns="http://www.w3.org/2000/svg"><path d="M27.923 5.312C22.155 5.312 17.736 3.655 14 0 10.262 3.655 5.843 5.312.076 5.312.077 14.83-1.88 28.463 14 34c15.882-5.537 13.924-19.17 13.924-28.688h-.001zM12.846 22.06l-4.639-4.666 2.077-2.089 2.562 2.577 4.87-4.897 2.076 2.089-6.946 6.986z"/></symbol><symbol viewBox="0 0 34 34" id="services__investments" xmlns="http://www.w3.org/2000/svg"><path d="M4.207 26.563h25.585V4.866H4.207v21.697zm8.661-14.267a3.445 3.445 0 0 1 3.337 2.576h7.522v1.684h-7.521a3.445 3.445 0 0 1-3.338 2.577c-1.899 0-3.443-1.534-3.443-3.419s1.544-3.418 3.443-3.418z"/><path d="M0 .5v30.429h2.48V33.5h2.968v-2.571h23.104V33.5h2.968v-2.571H34V.5H0zm2.512 27.747V3.182h28.976v25.065H2.512z"/></symbol><symbol viewBox="0 0 20 34" id="services__online" xmlns="http://www.w3.org/2000/svg"><path d="M17.675 0H2.325C1.047 0 0 1.033 0 2.296v29.407C0 32.966 1.047 34 2.325 34h15.35C18.953 34 20 32.968 20 31.703V2.296C20 1.033 18.953 0 17.675 0zM7.545 1.655h4.91a.28.28 0 0 1 .282.28.28.28 0 0 1-.282.277h-4.91a.28.28 0 0 1-.282-.278.28.28 0 0 1 .282-.279zM10 32.852c-.642 0-1.163-.514-1.163-1.15s.52-1.148 1.163-1.148c.642 0 1.163.513 1.163 1.149 0 .635-.52 1.149-1.163 1.149zm8.382-3.102H1.618V3.642h16.764V29.75z"/></symbol></svg>