<?xml version="1.0" encoding="utf-8"?>
<!-- Generator: Adobe Illustrator 22.1.0, SVG Export Plug-In . SVG Version: 6.00 Build 0)  -->
<svg version="1.1" id="Layer_1" xmlns="http://www.w3.org/2000/svg" xmlns:xlink="http://www.w3.org/1999/xlink" x="0px" y="0px"
	 viewBox="0 0 20 22" enable-background="new 0 0 20 22" xml:space="preserve">
<path fill="#1F1E25" d="M2.22222,14.3h2.22222v5.5H17.7778V2.2H4.44444v5.5H2.22222V1.1c0-0.29174,0.11707-0.57153,0.32544-0.77782
	C2.75603,0.11589,3.03865,0,3.33333,0H18.8889c0.2947,0,0.5773,0.11589,0.7857,0.32218C19.8829,0.52847,20,0.80826,20,1.1v19.8
	c0,0.2917-0.1171,0.5715-0.3254,0.7778C19.4662,21.8841,19.1836,22,18.8889,22H3.33333c-0.29468,0-0.5773-0.1159-0.78567-0.3222
	C2.33929,21.4715,2.22222,21.1917,2.22222,20.9V14.3z M8.88889,9.9V6.6L14.4444,11l-5.55551,4.4v-3.3H0V9.9H8.88889z"/>
</svg>
