<?xml version="1.0" encoding="utf-8"?>
<!-- Generator: Adobe Illustrator 23.0.3, SVG Export Plug-In . SVG Version: 6.00 Build 0)  -->
<svg version="1.1" id="Layer_1" xmlns="http://www.w3.org/2000/svg" xmlns:xlink="http://www.w3.org/1999/xlink" x="0px" y="0px"
	 viewBox="0 0 34.00029 30.00001" enable-background="new 0 0 34.00029 30.00001" xml:space="preserve">
<path d="M32.7022,4.39716L11.8788,0.03504c-0.881-0.1845-1.7542,0.37813-1.94058,1.2502L9.54261,3.80181
	L33.5692,8.83467l0.3957-2.51656C34.1512,5.44636,33.5832,4.58172,32.7022,4.39716z"/>
<path d="M23.9451,9.36838c-0.2432-0.86701-1.1586-1.37949-2.0342-1.13912l-3.953,1.08627L8.63885,7.3633
	l-1.0249,4.7934l-6.4036,1.7593c-0.87556,0.2405-1.39328,1.1465-1.15045,2.0133l3.6088,12.8725
	c0.24323,0.8667,1.15862,1.3795,2.03418,1.1388l20.70062-5.6864c0.8755-0.2408,1.3932-1.1465,1.1504-2.0136l-0.6194-2.2098
	l2.3216,0.4859c0.881,0.1848,1.7542-0.3778,1.9406-1.2499l1.4689-6.8706l-8.3627-1.7517L23.9451,9.36838z M26.3357,15.9107
	l0.512-2.395c0.0769-0.3586,0.4361-0.5899,0.7983-0.5142l2.4196,0.5071c0.3626,0.0761,0.5963,0.4313,0.5198,0.7902l-0.512,2.3951
	c-0.0769,0.3586-0.436,0.5902-0.7983,0.5142l-2.4196-0.5068C26.4926,16.6249,26.2589,16.2693,26.3357,15.9107z M1.57058,15.2006
	L22.2704,9.51455c0.0266-0.0071,0.0531-0.01045,0.079-0.01045c0.1166,0,0.2561,0.07578,0.2969,0.22091l0.7059,2.51719
	L2.0638,18.0899L1.35797,15.573C1.31374,15.4151,1.41108,15.2444,1.57058,15.2006z M26.2558,22.5968
	c0.0272,0.0977-0.0013,0.1785-0.0303,0.229c-0.0285,0.0505-0.0837,0.1166-0.1823,0.1434L5.34299,28.6556
	c-0.02617,0.0071-0.05305,0.0108-0.07894,0.0108c-0.11667,0-0.25617-0.0761-0.29695-0.2212l-2.1049-7.5084l21.2884-5.848
	L26.2558,22.5968z"/>
<path d="M8.68804,23.1106c-0.09933-0.3535-0.47217-0.5623-0.82934-0.4643l-2.41752,0.6643
	c-0.35683,0.098-0.56805,0.4674-0.46872,0.821l0.67078,2.3926c0.09934,0.3536,0.47217,0.5623,0.82934,0.464l2.41752-0.664
	c0.35717-0.098,0.56806-0.4674,0.46905-0.8209L8.68804,23.1106z"/>
</svg>
