<?xml version="1.0" encoding="utf-8"?>
<!-- Generator: Adobe Illustrator 23.0.3, SVG Export Plug-In . SVG Version: 6.00 Build 0)  -->
<svg version="1.1" id="Layer_1" xmlns="http://www.w3.org/2000/svg" xmlns:xlink="http://www.w3.org/1999/xlink" x="0px" y="0px"
	 viewBox="0 0 20 34" enable-background="new 0 0 20 34" xml:space="preserve">
<path d="M17.6746,0H2.3254C1.04663,0,0,1.03263,0,2.29646V31.7026C0,32.9664,1.04663,34,2.3254,34h15.3492
	C18.9534,34,20,32.9683,20,31.7035V2.29646C20,1.03263,18.9534,0,17.6746,0z M7.54476,1.65531h4.91044
	c0.1555,0,0.2814,0.12435,0.2814,0.2788c0,0.15349-0.1259,0.27783-0.2814,0.27783H7.54476
	c-0.15542,0-0.28133-0.12434-0.28133-0.27783C7.26343,1.77966,7.38934,1.65531,7.54476,1.65531z M10,32.8518
	c-0.64234,0-1.1627-0.5139-1.1627-1.1492c0-0.6353,0.52036-1.1483,1.1627-1.1483c0.6423,0,1.1627,0.513,1.1627,1.1483
	C11.1627,32.3379,10.6423,32.8518,10,32.8518z M18.3819,29.75H1.61814V3.64189H18.3819V29.75z"/>
</svg>
