<svg
    xmlns="http://www.w3.org/2000/svg" viewBox="0 0 34 34">
    <path d="M31.6746,0H16.3254C15.04663,0,14,1.03263,14,2.29646V31.7026C14,32.9664,15.04663,34,16.3254,34h15.3492
	C32.9534,34,34,32.9683,34,31.7035V2.29646C34,1.03263,32.9534,0,31.6746,0z M21.54476,1.65531h4.91044
	c0.1555,0,0.2814,0.12435,0.2814,0.2788c0,0.15349-0.1259,0.27783-0.2814,0.27783h-4.91044
	c-0.15542,0-0.28133-0.12434-0.28133-0.27783C21.26343,1.77966,21.38934,1.65531,21.54476,1.65531z M24,32.8518
	c-0.64234,0-1.1627-0.5139-1.1627-1.1492c0-0.6353,0.52036-1.1483,1.1627-1.1483c0.6423,0,1.1627,0.513,1.1627,1.1483
	C25.1627,32.33789,24.6423,32.8518,24,32.8518z M32.3819,29.75H15.61814V3.64189H32.3819V29.75z"/>
</svg>
