<?xml version="1.0" encoding="utf-8"?>
<!-- Generator: Adobe Illustrator 22.1.0, SVG Export Plug-In . SVG Version: 6.00 Build 0)  -->
<svg version="1.1" id="Layer_1" xmlns="http://www.w3.org/2000/svg" xmlns:xlink="http://www.w3.org/1999/xlink" x="0px" y="0px"
	 viewBox="0 0 318.78067 54.71745" enable-background="new 0 0 318.78067 54.71745" xml:space="preserve">
<path fill="#1F1E25" d="M108.10082,54.21745h-6.48907V28.94876h-7.52045c-0.1719,1.3178-0.35818,2.75033-0.55865,4.2974
	c-0.1719,1.54706-0.37238,3.1227-0.60163,4.72714c-0.20048,1.57564-0.41534,3.07973-0.64461,4.51226
	c-0.22927,1.40374-0.45832,2.64999-0.68758,3.73874c-0.37238,1.77633-0.87388,3.2946-1.50409,4.55524
	c-0.60163,1.26064-1.44672,2.22025-2.53547,2.87926c-1.05995,0.659-2.44951,0.9884-4.16847,0.9884
	c-1.11732,0-2.1487-0.1575-3.09412-0.47271v-5.32877c0.37237,0.11453,0.73055,0.21487,1.07435,0.30082
	c0.37237,0.08595,0.77353,0.12892,1.20327,0.12892c0.8309,0,1.46112-0.42974,1.89086-1.28922
	c0.45831-0.88806,0.91685-2.53547,1.37516-4.94201c0.17191-0.91685,0.41534-2.34917,0.73056-4.2974
	c0.31522-1.94822,0.65901-4.22584,1.03137-6.83286c0.40116-2.63581,0.77354-5.42912,1.11732-8.37992h19.38126
	C108.10084,23.53404,108.10084,54.21745,108.10082,54.21745z M115.84109,23.53404h5.84446v14.82602
	c0,0.71616-0.01418,1.51848-0.04298,2.40654c-0.02858,0.88806-0.05715,1.76193-0.08595,2.62141
	c-0.02858,0.8309-0.05715,1.56146-0.08595,2.19167c-0.02858,0.60163-0.05716,1.01698-0.08595,1.24624h0.12893l14.1814-23.29189
	h7.77829v30.68341h-5.80148V39.47738c0-0.77353,0.01442-1.61861,0.04297-2.53547c0.02879-0.94543,0.05737-1.84788,0.08595-2.70736
	c0.05737-0.85948,0.10034-1.60443,0.12892-2.23465c0.05737-0.65901,0.10034-1.08875,0.12891-1.28922h-0.17186l-14.22438,23.50676
	h-7.82126v-30.6834H115.84109z M170.60045,23.53404v5.37174h-12.8922v25.31166h-6.48906V23.53404H170.60045z M191.06615,54.21745
	l-2.23465-7.30557h-11.17323l-2.23465,7.30557h-7.00476l10.82945-30.81233h7.95016l10.87241,30.81233H191.06615z
	 M187.28442,41.45419l-2.23463-7.13368c-0.14333-0.48711-0.32961-1.10293-0.55865-1.84788
	c-0.22926-0.74495-0.45854-1.50409-0.68759-2.27762c-0.22926-0.77353-0.41559-1.44672-0.55867-2.01978
	c-0.14333,0.57306-0.3438,1.28922-0.60162,2.1487c-0.22926,0.8309-0.45854,1.63301-0.68759,2.40654
	c-0.20068,0.74495-0.35818,1.27482-0.47272,1.59003l-2.19165,7.13368H187.28442z M214.25296,54.21745V23.53404h19.38124v5.37174
	h-12.89218v6.40312h2.57843c2.89429,0,5.25786,0.40117,7.09071,1.20327c1.86292,0.80211,3.23808,1.90525,4.12549,3.30899
	c0.88742,1.40374,1.3322,3.00817,1.3322,4.81308c0,3.03675-1.01634,5.40033-3.05118,7.0907
	c-2.00473,1.66159-5.21486,2.49249-9.62617,2.49249C223.1915,54.21745,214.25296,54.21745,214.25296,54.21745z M220.74203,48.88868
	h2.19167c1.97679,0,3.52386-0.31522,4.64119-0.94543c1.14525-0.63021,1.71896-1.73335,1.71896-3.30899
	c0-1.63301-0.61664-2.70736-1.84789-3.22305c-1.23119-0.51569-2.90718-0.77353-5.02794-0.77353h-1.67598
	C220.74205,40.63768,220.74205,48.88868,220.74203,48.88868z M250.76793,30.28095c3.15216,0,5.55867,0.68758,7.21962,2.06275
	c1.69101,1.34659,2.53549,3.42352,2.53549,6.23122v15.64252h-4.4693l-1.24626-3.18007h-0.17189
	c-1.00345,1.26064-2.06276,2.17728-3.18008,2.75034s-2.64935,0.85948-4.59822,0.85948c-2.09068,0-3.82468-0.60164-5.19984-1.80491
	c-1.37518-1.23185-2.06276-3.10852-2.06276-5.62959c0-2.49249,0.87454-4.32597,2.62141-5.50067
	c1.7469-1.20327,4.3683-1.86227,7.86424-1.9768l4.08253-0.12892v-1.03138c0-1.23185-0.32875-2.1343-0.98842-2.70736
	c-0.62956-0.57306-1.51912-0.85948-2.66438-0.85948c-1.14525,0-2.26259,0.17189-3.35196,0.51569
	c-1.0894,0.31522-2.17664,0.71616-3.26602,1.20327l-2.10573-4.34037c1.26128-0.65901,2.64935-1.17469,4.16847-1.54706
	C247.50191,30.46725,249.10699,30.28095,250.76793,30.28095z M254.16289,43.34504l-2.49251,0.08595
	c-2.06274,0.05737-3.49593,0.42974-4.29739,1.11732c-0.80147,0.68758-1.20326,1.59004-1.20326,2.70736
	c0,0.974,0.28578,1.67598,0.85948,2.10572c0.5737,0.40117,1.31715,0.60164,2.23463,0.60164
	c1.37517,0,2.53546-0.40117,3.4809-1.20327c0.94543-0.8309,1.41815-1.9912,1.41815-3.48089V43.34504z M273.47968,30.75367v9.02453
	h8.9386v-9.02453h6.40311v23.46379h-6.40311v-9.66914h-8.9386v9.66914h-6.40314V30.75367H273.47968z M310.91644,30.75367h7.04773
	l-9.28238,11.25918l10.09888,12.20461h-7.26257l-9.58322-11.90379v11.90379h-6.40311V30.75367h6.40311v11.3881L310.91644,30.75367z"
	/>
<path fill="#2C36F2" d="M34.29305,0.5h-6.26711L0.45105,46.35644h8.14715l3.76022-6.55095L34.29305,0.5z"/>
<path fill="#2C36F2" d="M4.21128,54.21745h52.6431L34.29305,13.60182l-3.76022,6.55082l11.28066,19.65285l3.76022,6.55095H8.59821
	H0.45105L4.21128,54.21745z"/>
<path fill="#2C36F2" d="M45.57371,46.35644l-3.76022-6.55095H19.25216h-6.89373l-3.76022,6.55095H45.57371z"/>
<path fill="#2C36F2" d="M56.85438,54.21745l3.76022-7.86102L34.29305,0.5L12.35843,39.80549h6.89373l11.28067-19.65285
	l3.76022-6.55082L56.85438,54.21745z"/>
<path fill="#2C36F2" d="M30.53283,20.15264L19.25216,39.80549h22.56133L30.53283,20.15264z"/>
<path fill="none" stroke="#F6F7FF" d="M56.85438,54.21745H4.21128l-3.76022-7.86102 M56.85438,54.21745l3.76022-7.86102
	L34.29305,0.5 M56.85438,54.21745L34.29305,13.60182l-3.76022,6.55082 M34.29305,0.5h-6.26711L0.45105,46.35644 M34.29305,0.5
	L12.35843,39.80549 M0.45105,46.35644h8.14715 M30.53283,20.15264L19.25216,39.80549 M30.53283,20.15264l11.28066,19.65285
	 M19.25216,39.80549h22.56133 M19.25216,39.80549h-6.89373 M41.81349,39.80549l3.76022,6.55095H8.59821 M12.35843,39.80549
	l-3.76022,6.55095"/>
</svg>
