<?xml version="1.0" encoding="utf-8"?>
<!-- Generator: Adobe Illustrator 22.1.0, SVG Export Plug-In . SVG Version: 6.00 Build 0)  -->
<svg version="1.1" id="Layer_1" xmlns="http://www.w3.org/2000/svg" xmlns:xlink="http://www.w3.org/1999/xlink" x="0px" y="0px"
	 viewBox="0 0 29.01543 26" enable-background="new 0 0 29.01543 26" xml:space="preserve">
<path fill="#2C36F2" d="M16.20105,0.5h-2.9167L0.45105,21.8415h3.79167l1.75-3.0488L16.20105,0.5z"/>
<path fill="#2C36F2" d="M2.20105,25.5h24.5l-10.5-18.90244l-1.75,3.04874l5.25,9.1464l1.75,3.0488H4.24272H0.45105L2.20105,25.5z"/>
<path fill="#2C36F2" d="M21.45105,21.8415l-1.75-3.0488h-10.5H5.99272l-1.75,3.0488H21.45105z"/>
<path fill="#2C36F2" d="M26.70105,25.5l1.75-3.6585L16.20105,0.5L5.99272,18.7927h3.20833l5.25-9.1464l1.75-3.04874L26.70105,25.5z"
	/>
<path fill="#2C36F2" d="M14.45105,9.6463l-5.25,9.1464h10.5L14.45105,9.6463z"/>
<path fill="none" stroke="#F6F7FF" d="M26.70105,25.5h-24.5l-1.75-3.6585 M26.70105,25.5l1.75-3.6585L16.20105,0.5 M26.70105,25.5
	l-10.5-18.90244l-1.75,3.04874 M16.20105,0.5h-2.9167L0.45105,21.8415 M16.20105,0.5L5.99272,18.7927 M0.45105,21.8415h3.79167
	 M14.45105,9.6463l-5.25,9.1464 M14.45105,9.6463l5.25,9.1464 M9.20105,18.7927h10.5 M9.20105,18.7927H5.99272 M19.70105,18.7927
	l1.75,3.0488H4.24272 M5.99272,18.7927l-1.75,3.0488"/>
</svg>
